Coordinates
version=1
nRows=32
nColumns=12
inDegrees=yes

Units are S.I. units (second, meters, Newtons, ...)
Angles are in degrees

endheader
time	SC_y	SC_z	SC_x	AC_y	AC_z	AC_x	GH_y	GH_z	GH_yy	EL_x	PS_y
       0.0               -30.0          35.95          75.34          34.31         -14.37          1.918          109.1          65.69         -130.6          38.21          64.46
  0.002871               -30.0          35.95          75.33          34.31         -14.37           1.92          109.1          65.69         -130.6          38.21          64.46
  0.005742               -30.0          35.95          75.32          34.32         -14.37          1.921          109.1          65.68         -130.6          38.22          64.46
  0.008613               -30.0          35.95          75.31          34.32         -14.37          1.923          109.0          65.67         -130.6          38.22          64.45
   0.01148               -30.0          35.95           75.3          34.32         -14.36          1.925          109.0          65.67         -130.6          38.22          64.44
   0.01435               -30.0          35.95          75.29          34.32         -14.36          1.927          109.0          65.66         -130.6          38.22          64.44
   0.01723               -30.0          35.94          75.28          34.33         -14.36           1.93          108.9          65.65         -130.6          38.22          64.43
    0.0201               -30.0          35.94          75.27          34.33         -14.35          1.932          108.9          65.65         -130.6          38.23          64.43
   0.02297               -30.0          35.94          75.25          34.34         -14.35          1.934          108.8          65.64         -130.6          38.23          64.42
   0.02584               -30.0          35.94          75.24          34.34         -14.35          1.937          108.8          65.63         -130.5          38.23          64.41
   0.02871               -30.0          35.94          75.23          34.34         -14.34           1.94          108.7          65.62         -130.5          38.23           64.4
   0.03158               -30.0          35.94          75.21          34.35         -14.34          1.943          108.7          65.61         -130.5          38.24          64.39
   0.03445               -30.0          35.94          75.19          34.35         -14.33          1.947          108.6           65.6         -130.5          38.24          64.38
   0.03732               -30.0          35.94          75.17          34.36         -14.33           1.95          108.5          65.58         -130.5          38.25          64.37
   0.04019              -30.01          35.94          75.15          34.36         -14.32          1.954          108.5          65.57         -130.5          38.25          64.36
   0.04306              -30.01          35.93          75.13          34.37         -14.32          1.959          108.4          65.56         -130.5          38.25          64.35
   0.04594              -30.01          35.93          75.11          34.38         -14.31          1.963          108.3          65.54         -130.5          38.26          64.34
   0.04881              -30.01          35.93          75.08          34.39          -14.3          1.968          108.2          65.52         -130.5          38.26          64.32
   0.05168              -30.01          35.93          75.05          34.39         -14.29          1.974          108.1          65.51         -130.5          38.27          64.31
   0.05455              -30.01          35.93          75.02           34.4         -14.29           1.98          108.0          65.48         -130.5          38.28          64.29
   0.05742              -30.01          35.92          74.99          34.41         -14.28          1.987          107.9          65.46         -130.4          38.28          64.27
   0.06029              -30.01          35.92          74.95          34.42         -14.27          1.994          107.8          65.44         -130.4          38.29          64.25
   0.06316              -30.02          35.92          74.91          34.44         -14.25          2.002          107.6          65.41         -130.4           38.3          64.23
   0.06603              -30.02          35.92          74.86          34.45         -14.24          2.011          107.5          65.38         -130.4          38.31           64.2
    0.0689              -30.02          35.91          74.81          34.47         -14.23          2.021          107.3          65.35         -130.4          38.32          64.17
   0.07177              -30.02          35.91          74.76          34.48         -14.21          2.032          107.1          65.31         -130.3          38.33          64.14
   0.07465              -30.02           35.9          74.69           34.5         -14.19          2.045          106.9          65.27         -130.3          38.35          64.11
   0.07752              -30.03           35.9          74.62          34.52         -14.17          2.059          106.6          65.22         -130.3          38.36          64.07
   0.08039              -30.03          35.89          74.54          34.55         -14.15          2.075          106.4          65.17         -130.3          38.38          64.02
   0.08326              -30.04          35.89          74.45          34.57         -14.13          2.093          106.0          65.11         -130.2           38.4          63.97
   0.08613              -30.04          35.88          74.34           34.6          -14.1          2.114          105.7          65.04         -130.2          38.42          63.91
     0.089              -30.04          35.87          74.22          34.64         -14.06          2.137          105.3          64.96         -130.1          38.44          63.84
